# xmcd
#
# Track frame offsets:
#   150
#   18006
#   35413
#   50269
#   65899
#   85855
#   103041
#   119698
#   138455
#   153011
#   172667
#   186540
#   202268
#   218447
#   235756
#   250691
#   269401
#   288084
#
# Disc length: 3985 seconds
#
# Revision: 0
# Processed by: cddbd v1.5.2PL0 Copyright (c) Steve Scherf et al.
# Submitted via: Click'N Design 3D 5.1
#
DISCID=f90f8f12
DTITLE=Rascal's Great Hits - Rascal Flatts
DYEAR=2004
DGENRE=Country
TTITLE0=01- Where You Are
TTITLE1=02- Bless The Broken Road
TTITLE2=03- Then I Did
TTITLE3=04- Feels Like Today
TTITLE4=05- Fast Cars And Freedom
TTITLE5=06- When The Sand Runs Out
TTITLE6=07- Here's To You
TTITLE7=08- The Day Before You
TTITLE8=09- Break Away
TTITLE9=10- Holes
TTITLE10=11- Oklahoma-Texas Line
TTITLE11=12- Stand
TTITLE12=13- What Hurts The Most
TTITLE13=14- Backwards
TTITLE14=15- I Feel Bad
TTITLE15=16- My Wish
TTITLE16=17- Pieces
TTITLE17=18- Yes I Do
EXTD=
EXTT0=
EXTT1=
EXTT2=
EXTT3=
EXTT4=
EXTT5=
EXTT6=
EXTT7=
EXTT8=
EXTT9=
EXTT10=
EXTT11=
EXTT12=
EXTT13=
EXTT14=
EXTT15=
EXTT16=
EXTT17=
PLAYORDER=
